<svg xmlns="http://www.w3.org/2000/svg" viewBox="0 0 1600 900" width="1600" height="900" fill="none">
  <defs>
    <linearGradient id="bg2" x1="0" y1="0" x2="1" y2="1">
      <stop offset="0" stop-color="#0e1a26"/>
      <stop offset="1" stop-color="#0a0a10"/>
    </linearGradient>
    <radialGradient id="glow2" cx="0.7" cy="0.1" r="0.8">
      <stop offset="0" stop-color="#22d3ee" stop-opacity="0.3"/>
      <stop offset="1" stop-color="#22d3ee" stop-opacity="0"/>
    </radialGradient>
  </defs>
  <rect width="1600" height="900" fill="url(#bg2)"/>
  <rect width="1600" height="900" fill="url(#glow2)"/>
  <g stroke="#ffffff" stroke-opacity="0.05">
    <path d="M0 150H1600M0 300H1600M0 450H1600M0 600H1600M0 750H1600"/>
    <path d="M200 0V900M400 0V900M600 0V900M800 0V900M1000 0V900M1200 0V900M1400 0V900"/>
  </g>
  <circle cx="70" cy="70" r="14" fill="#22d3ee"/>
  <circle cx="110" cy="70" r="14" fill="#ffffff" fill-opacity="0.15"/>
  <circle cx="150" cy="70" r="14" fill="#ffffff" fill-opacity="0.15"/>
  <rect x="120" y="200" width="360" height="300" rx="22" fill="#ffffff" fill-opacity="0.04" stroke="#22d3ee" stroke-opacity="0.4"/>
  <rect x="520" y="200" width="360" height="300" rx="22" fill="#ffffff" fill-opacity="0.04" stroke="#ffffff" stroke-opacity="0.12"/>
  <rect x="920" y="200" width="560" height="300" rx="22" fill="#ffffff" fill-opacity="0.04" stroke="#a40dc3" stroke-opacity="0.35"/>
  <rect x="160" y="250" width="200" height="26" rx="13" fill="#ffffff" fill-opacity="0.25"/>
  <circle cx="260" cy="380" r="70" fill="none" stroke="#22d3ee" stroke-opacity="0.6" stroke-width="12"/>
  <rect x="960" y="250" width="300" height="20" rx="10" fill="#ffffff" fill-opacity="0.18"/>
  <rect x="960" y="300" width="480" height="14" rx="7" fill="#ffffff" fill-opacity="0.1"/>
  <rect x="960" y="332" width="440" height="14" rx="7" fill="#ffffff" fill-opacity="0.1"/>
  <rect x="960" y="364" width="460" height="14" rx="7" fill="#ffffff" fill-opacity="0.1"/>
  <text x="120" y="640" font-family="monospace" font-size="120" font-weight="700" fill="#ffffff" fill-opacity="0.9">02</text>
  <text x="120" y="700" font-family="monospace" font-size="30" letter-spacing="8" fill="#a40dc3">SLIDE PLACEHOLDER — REPLACE IN /public/slides</text>
</svg>
